<?xml version="1.0" encoding="utf-8"?>
<!-- Generator: Adobe Illustrator 25.4.1, SVG Export Plug-In . SVG Version: 6.00 Build 0)  -->
<svg version="1.1" xmlns="http://www.w3.org/2000/svg" xmlns:xlink="http://www.w3.org/1999/xlink" x="0px" y="0px"
	 viewBox="0 0 200 200" style="enable-background:new 0 0 200 200;" xml:space="preserve">
<style type="text/css">
	.st0{display:none;}
	.st1{display:inline;fill:#3B3B3B;}
	.st2{fill:#575757;}
	.st3{fill:#202020;}
</style>
<g id="Layer_1_copy" class="st0">
	<path class="st1" d="M172.1,119l-70.5-70.5l-70.1,70.1c0,0-1,7,4.8,5.1c5.8-1.9,65.5-60.2,65.5-60.2l62.5,60.6
		C164.3,124,174.6,125.1,172.1,119z"/>
</g>
<g id="Layer_1">
	<path class="st2" d="M172.1,119l-70.5-70.5l-70.1,70.1c0,0-1,7,4.8,5.1c5.8-1.9,65.5-60.2,65.5-60.2l62.5,60.6
		C164.3,124,174.6,125.1,172.1,119z"/>
	<path class="st3" d="M172.1,148.3l-70.5-70.5l-70.1,70.1c0,0-1,7,4.8,5.1s65.5-60.2,65.5-60.2l62.5,60.6
		C164.3,153.3,174.6,154.4,172.1,148.3z"/>
</g>
</svg>
